:SAMPLES-PER-SECOND 30
:FRAME-RANGE 1-1086
:FULLY-SPECIFIED
:DEGREES
340
root  -89.9468 38.2919 -12.9488 4.04596 -9.89044 -0.0657196
RightUpLeg  -27.1841 -6.14665 -2.99168
RightLeg  63.8156 -2.10404 -5.23539
RightFoot  -3.77607 -0.914071 13.3777
RightToes  -5.8209e-011 0 -3.6325e-017
Spine  10.4596 0.738823 -8.8101
Spine1  2.64915 0.99352 -4.35569
HEad  -2.75672 1.41697 1.92249
LeftShoulder1  2.05952 -2.42528 -28.6701
LeftArm  1.93373 -16.6219 -26.6941
LeftForeArm  -12.957 -51.2137 -14.9584
LeftHand  0.499611 1.96684 -17.5297
RightShoulder  10.8466 19.1283 41.6201
RightArm  -4.02068 11.4293 11.7644
RightForeArm  -22.1986 57.3268 19.5787
RightHand  0.100239 -4.51375 18.3972
LeftUpLeg  -24.3218 18.388 -4.10146
LeftLeg  23.8749 5.02157 1.46097
LeftFoot  -5.26619 -0.0411562 1.37354
LeftToes  5.72949e-011 5.22586e-011 2.45399e-011
341
root  -89.9301 38.3925 -12.252 4.17293 -9.04482 -0.192413
RightUpLeg  -29.9544 -5.88533 -2.54986
RightLeg  61.6951 -2.64068 -5.83316
RightFoot  -4.67278 -0.783952 12.8571
RightToes  -5.8209e-011 0 -3.6325e-017
Spine  10.345 0.381567 -9.05119
Spine1  3.01169 0.653385 -4.00518
HEad  -2.70269 1.47745 1.9053
LeftShoulder1  2.07931 -2.46915 -28.7486
LeftArm  1.58311 -17.0496 -27.1007
LeftForeArm  -12.8715 -50.822 -14.7417
LeftHand  0.513582 1.88269 -17.5473
RightShoulder  10.862 19.391 41.1614
RightArm  -4.45147 11.9508 11.7907
RightForeArm  -22.3904 56.963 19.3083
RightHand  0.097622 -4.53065 18.4303
LeftUpLeg  -23.1876 17.7662 -3.9131
LeftLeg  23.7495 4.98395 1.4721
LeftFoot  -6.27355 -0.0136979 1.16306
LeftToes  5.72949e-011 5.22586e-011 2.45399e-011
342
root  -89.9131 38.576 -11.5219 4.41447 -7.6093 -0.329361
RightUpLeg  -31.7636 -6.72634 -1.9243
RightLeg  56.7562 -3.85368 -6.73774
RightFoot  -4.84637 -0.779558 13.1015
RightToes  -5.8209e-011 0 -3.6325e-017
Spine  9.62795 -0.186803 -9.22774
Spine1  3.84752 0.0151813 -3.10835
HEad  -2.56885 1.28578 1.91275
LeftShoulder1  2.09511 -2.51632 -28.7384
LeftArm  1.48448 -17.437 -27.4378
LeftForeArm  -12.8221 -50.5132 -14.5749
LeftHand  0.544871 1.71067 -17.6662
RightShoulder  10.8519 19.5263 40.8542
RightArm  -4.76197 12.9937 11.9345
RightForeArm  -22.9771 55.6091 18.3467
RightHand  0.127256 -4.37546 18.8602
LeftUpLeg  -21.5327 16.2087 -3.50633
LeftLeg  22.5719 5.10782 1.22614
LeftFoot  -6.76982 0.0018117 0.975365
LeftToes  5.72949e-011 5.22586e-011 2.45399e-011
343
root  -89.8916 38.7559 -10.8022 4.65279 -6.13673 -0.479553
RightUpLeg  -32.7451 -8.05188 -1.10294
RightLeg  49.5737 -4.32666 -5.76531
RightFoot  -4.41456 -0.799603 12.6648
RightToes  -5.8209e-011 0 -3.6325e-017
Spine  9.10114 -0.725379 -9.05338
Spine1  4.41782 -0.602344 -2.29188
HEad  -2.56199 1.14334 1.83349
LeftShoulder1  2.11203 -2.53619 -28.908
LeftArm  1.61821 -17.7944 -27.3765
LeftForeArm  -13.0113 -50.5736 -14.6192
LeftHand  0.523046 1.81776 -17.5177
RightShoulder  10.7789 19.6504 40.3146
RightArm  -5.00728 12.8755 12.2197
RightForeArm  -23.0018 55.5618 18.3148
RightHand  0.114016 -4.46368 19.1246
LeftUpLeg  -19.8913 15.2467 -3.2058
LeftLeg  21.2524 4.679 0.786082
LeftFoot  -7.28465 0.0218628 0.681694
LeftToes  5.72949e-011 5.22586e-011 2.45399e-011
344
root  -89.878 38.9336 -10.087 4.75658 -4.76021 -0.787399
RightUpLeg  -32.6792 -9.60206 0.151685
RightLeg  40.5634 -4.94386 -4.79479
RightFoot  -3.90512 -0.880376 13.0831
RightToes  -5.8209e-011 0 -3.6325e-017
Spine  8.70286 -1.07138 -8.48586
Spine1  5.0673 -1.07496 -1.46198
HEad  -2.78191 1.00884 1.91548
LeftShoulder1  2.12843 -2.61165 -28.7416
LeftArm  1.83457 -18.17 -27.6585
LeftForeArm  -13.0351 -50.559 -14.613
LeftHand  0.506967 1.89634 -17.4005
RightShoulder  10.6686 19.4905 40.1698
RightArm  -5.11909 12.8758 12.0175
RightForeArm  -23.1433 55.667 18.3979
RightHand  0.102486 -4.53511 19.2646
LeftUpLeg  -18.1249 14.8025 -2.79927
LeftLeg  19.8515 3.90205 0.450762
LeftFoot  -7.69427 0.034779 0.483425
LeftToes  5.72949e-011 5.22586e-011 2.45399e-011
